<?xml version="1.0" encoding="utf-8"?>
<!-- Generator: Adobe Illustrator 22.0.0, SVG Export Plug-In . SVG Version: 6.00 Build 0)  -->
<svg version="1.1" id="圖層_1" xmlns="http://www.w3.org/2000/svg" xmlns:xlink="http://www.w3.org/1999/xlink" x="0px" y="0px"
	 viewBox="0 0 400 400" style="enable-background:new 0 0 400 400;" xml:space="preserve">
<path d="M401,299c0,3.3,0,6.7,0,10c-2,2.4-4.8,4.4-5.8,7.2c-3.4,8.7-6.1,17.7-9.1,26.6c-1.7,5-5.1,7.9-10.1,9.4
	c-11.9,3.6-24,1.9-36.1,1.4c-8.1-0.3-15.6-2.5-22-7.7c-3.8-3.1-7.6-5.7-12.6-2.1c-0.8,0.6-2.4,0.1-3.4,0.6c-2.1,0.9-4.4,1.8-6,3.3
	c-3.3,3-5.9,6.6-9.2,9.7c-5,4.7-10.6,8.9-15.4,13.8c-14.3,14.9-31.3,24.3-51.9,26.9c-3.5,0.4-6.8,1.9-10.2,2.8c-10.7,0-21.3,0-32,0
	c-1.6-0.5-3.2-1.3-4.9-1.6c-13.3-2-26.7-3.6-39.9-6c-20.8-3.9-40.8-10.2-59.6-20.1c-15.4-8.1-27.8-19.3-37.8-33.7
	c-13.1-19.1-14.5-39.3-8.8-61c1.6-6.2,2.4-12.7,2.8-19.1c0.5-7.7,0-15.5,0.1-23.3c0.3-17.3,0.5-34.6,1-51.9
	c0.2-6.8,0.6-13.6,1.4-20.3c2.4-19.9,5.6-39.7,7.5-59.6c1.4-14.3,1.8-28.6,9-41.7c4-7.3,7.6-14.8,11-22.4
	C64.9,26.5,77,20.6,90.4,18.4c7.8-1.3,16.2,1,24.4,1.9c4.2,0.5,8.5,1,12.5,2.4c3.5,1.3,6.1,0.7,9.3-0.8c4.7-2.2,9.8-3.5,14.8-5.1
	c3.8-1.2,8.7-1.3,11.4-3.8c12.2-11.3,32.5-13.7,46-3.9c5.1,3.7,10.5,4.2,16.2,5.1c9.2,1.5,19.2-3.9,27.7,3.2c0.1,0.1,0.3,0,0.5,0
	c7.2,2.5,14.8,4.1,21.4,7.7c9.5,5.2,19.6,10.4,22,22.8c0.1,0.7,0.8,1.6,1.4,2c9.5,5.9,12.7,16.3,17.8,25.3c2.1,3.7,2.8,8.5,3.1,12.8
	c0.4,6.1-0.4,12.3-0.1,18.4c0.6,11.2,2.7,22.4,0.8,33.7c-0.5,2.8,0,5.9,0.5,8.7c0.5,3,1.4,6,2.1,9c0.4,1.6,0.4,3.3,1.1,4.7
	c5.4,9.9,11.6,19.4,16.4,29.5c5.6,11.7,13.4,22.7,13.7,36.5c0.1,3,1.3,6.3,2.9,8.9c4.2,6.8,8.6,13.4,13.4,19.7
	c2.3,3.1,2.5,5.1-0.5,7.4c-0.8,0.6-1.3,1.4-2,2.2c4.7,9.4,12.9,15.3,20.2,22c0.9,0.8,3,1.2,4.1,0.8c3.7-1.4,5.2,0.9,6.6,3.4
	C399.2,294.9,400,297,401,299z M314,243.1c-0.6,0.2-1.3,0.3-1.9,0.5c0,8.8-0.2,17.5,0.1,26.3c0.2,6.6-0.9,14.1,1.8,19.6
	c7.2,15,18.5,26.7,34.9,32.2c5.3,1.8,10.8,3.2,16.1,4.9c6.2,1.9,9.9-1.3,9.3-7.7c-0.6-6.6-2.1-12.3-7.8-16.5c-2.7-2-4.6-5.2-6.7-8
	c-3.4-4.4-6.6-8.9-9.9-13.4c-3,1.7-5.9,4.4-8.5-0.3c-3.6-6.5-6.9-13.2-10.9-19.5C326,254.3,321.2,247.5,314,243.1z M313.7,298.4
	c0.4,7.7,0.7,15.3,1.3,22.8c0.1,1.2,1.5,2.5,2.6,3.2c3.8,2.4,7.5,5.1,11.7,6.6c5.6,2,11.5,3,17.2,4.5c0.2-0.5,0.3-0.9,0.5-1.4
	C336,322.3,325,310.5,313.7,298.4z"/>
</svg>
