<?xml version="1.0" encoding="utf-8"?>
<!-- Generator: Adobe Illustrator 22.0.0, SVG Export Plug-In . SVG Version: 6.00 Build 0)  -->
<svg version="1.1" id="圖層_1" xmlns="http://www.w3.org/2000/svg" xmlns:xlink="http://www.w3.org/1999/xlink" x="0px" y="0px"
	 viewBox="0 0 400 400" style="enable-background:new 0 0 400 400;" xml:space="preserve">
<path d="M262,401c-4.3,0-8.7,0-13,0c-1.3-2.3-2.4-4.7-4-6.7c-0.9-1.1-2.7-1.9-4.1-2c-3.4-0.2-6.9,0.3-10.3,0
	c-7.1-0.6-14.2-2.2-21.3-2.3c-23.5-0.6-47-0.5-70.4-1.1c-9.3-0.2-18.5-1.3-27.8-2.1c-15-1.3-30.1-2.5-45.1-4.2
	c-6-0.7-11.8-2.7-17.8-4c-4.2-0.9-8.5-2.5-12.6-2.2c-10.9,0.9-18.9-3.9-21.4-14.6c-1.3-5.6-2.2-11.4-2.5-17.2
	c-0.6-11.5-0.6-23-1.2-34.5c-0.2-4.9-1.6-9.8-2-14.8c-0.8-9.6-1.2-19.2-1.8-28.7c-1.3-20.3-3.3-40.7-3.9-61
	c-0.5-19.4,0.6-38.9,0.9-58.4c0.2-12.4,0.6-24.9,0.4-37.3c-0.1-5,2-7,6.5-7.1c8.3-0.2,16.6-0.3,24.9-0.4c20.6-0.3,41.3-0.7,61.9-0.6
	c4.2,0,5.8-1.6,6.5-5c0.9-5.1,1.6-10.2,2.5-15.2c2.4-12.3,5-24.6,7.2-37c0.9-4.9,2.9-8.6,7-11.5c5.3-3.8,10.7-7.7,15.5-12.1
	c7.6-6.9,16.4-9,26.3-8.9c6.1,0.1,12.2-0.8,18.3-1.5c5.9-0.7,11.7-1.9,17.6-2.6c10.1-1.1,20.1-2.3,30.2-3c6.7-0.5,13.7-1.4,20,2.2
	c3.6,2.1,6.9,4.7,10.2,7c10,7.1,17,15.9,17.1,29c0.2,16.3,0.7,32.6,1.2,48.9c0.1,3.3,0.8,6.6,1.7,9.8c0.3,1.1,1.9,2.5,2.9,2.6
	c7.3,0.6,14.5,0.9,21.8,1.3c19.7,1,39.5,1.6,59.2,3.3c13.6,1.1,26,5.7,34.8,17.1c0.9,1.1,2.2,1.9,3.3,2.8c0,16.3,0,32.7,0,49
	c-0.5,2.7-1.5,5.3-1.6,8c-0.5,26.3-0.6,52.5-1.5,78.8c-0.4,11.9-2.8,23.7-3.9,35.6c-1.1,12.9-2.7,25.4-7.6,37.8
	c-6.1,15.5-14.4,30.2-18,46.6c-0.2,0.9-0.8,1.8-1.3,2.7c-4.6,7.9-18,13-29.5,11.4c-2.6-0.4-5.3-0.6-7.9-0.5
	c-12.6,0.2-25.3,0.6-37.9,0.6c-3.3,0-6.5-0.8-9.8-1.4C274.9,396.2,267.3,391.8,262,401z M253.5,74.2c-0.6-10.5-1.1-18.9-1.5-27.4
	c-0.3-7-0.5-7.3-7.6-8.1c-1.3-0.1-2.7-0.2-4-0.2c-11.8,0.1-23.6,0.3-35.4,0.2c-17.8-0.1-35.5-0.5-53.3-0.7c-2.9,0-4.4,1.2-4.8,4.5
	c-0.9,7.2-2.4,14.3-3.5,21.5c-1.6,10.1-3.3,20.3-4.4,30.4c-0.6,6,1.1,7.6,7.2,7.8c6.5,0.2,13-0.2,19.5,0c9.5,0.3,19,1.2,28.4,1.1
	c17.2-0.2,34.5-1,51.7-1.3c3.2-0.1,5.1-0.6,5.4-4.1C252.1,89.4,252.9,80.8,253.5,74.2z"/>
</svg>
