<?xml version="1.0" encoding="utf-8"?>
<!-- Generator: Adobe Illustrator 22.0.0, SVG Export Plug-In . SVG Version: 6.00 Build 0)  -->
<svg version="1.1" id="圖層_1" xmlns="http://www.w3.org/2000/svg" xmlns:xlink="http://www.w3.org/1999/xlink" x="0px" y="0px"
	 viewBox="0 0 400 400" style="enable-background:new 0 0 400 400;" xml:space="preserve">
<path d="M181.9,5.9c13.5,10.2,27,1.8,40.8,1.3c2,5.2,3.4,10.9,6.2,15.8c5.8,10.5,12.5,20.6,18.6,31c7.5,12.9,19,21.4,31,29.6
	c3.6,2.5,6.7,5.9,9.4,9.4c8.2,10.4,17.2,20.4,23.8,31.8c7.6,13,16.4,24.8,26.5,35.9c3.2,3.5,5.1,8.1,7.4,12.3
	c1.5,2.8,1.7,6.6,6.3,6.4c0.4,0,1,0.5,1.1,0.9c1.4,6.1,5.9,12.5,2.6,18.5c-2.8,5.1-2.5,9.8-2.2,14.8c0.8,13.5,2.3,27,2.6,40.6
	c0.9,35.1,1.7,70.2,1.9,105.3c0.1,10-1.7,20.1-3,30.1c-0.7,5.6-5.2,9.5-11.1,9.6c-13.6,0.1-27.3-0.3-40.9-0.4
	c-15.3-0.1-30.6-0.1-45.9-0.2c-11.8-0.1-23.6-0.2-35.5-0.3c-8.3-0.1-16.6,0-24.9-0.1c-4,0-8-0.3-12-0.3c-39.5,0.3-78.9,0.7-118.4,1
	c-6.8,0.1-13.1-1.8-16.5-8.3c-2-3.9-3.4-8.4-3.8-12.7c-1.4-16.5-2.6-33.1-3.2-49.7c-0.6-17.7-0.7-35.5-0.6-53.2
	c0.1-17.6,0.8-35.2,1.5-52.7c0.3-6.6,1.4-13.2,2.2-19.8c0.1-0.7,0.3-1.4,0.1-2c-3.5-15.8,4-29.2,9.6-42.9c10.4-25.3,26-47,46.2-65.6
	c11.3-10.4,21.5-22,32.6-32.6c9.4-8.9,17.3-19.3,28.1-26.9c7.2-5,12-12.5,15.8-20.5C179.2,10,180.6,8.1,181.9,5.9z M331,181.6
	c-0.4-1.1-1.1-2.9-1.9-4.7c-4.1-9.1-8-18.4-12.6-27.3c-3.5-6.9-6.5-14.8-12-19.6c-13.5-11.7-27.7-22.9-42.8-32.5
	c-14.9-9.5-30.2-18.1-41.7-31.9c-5.7-6.8-11.4-13.6-17.3-20.7c-1.1,1.4-2.4,2.8-3.6,4.4c-8.6,11.8-18.8,22-30.7,30.5
	c-5.2,3.7-10.6,7.3-15.7,11.2c-14.1,10.7-28.1,21.5-42.2,32.4c-5.2,4-10.7,7.8-15.3,12.5c-8.5,8.7-16.7,17.9-24.6,27.2
	c-4.6,5.4-8.5,11.4-12.4,16.9C149.3,184.3,240,186.6,331,181.6z"/>
</svg>
