<?xml version="1.0" encoding="utf-8"?>
<!-- Generator: Adobe Illustrator 22.0.0, SVG Export Plug-In . SVG Version: 6.00 Build 0)  -->
<svg version="1.1" id="圖層_1" xmlns="http://www.w3.org/2000/svg" xmlns:xlink="http://www.w3.org/1999/xlink" x="0px" y="0px"
	 viewBox="0 0 400 400" style="enable-background:new 0 0 400 400;" xml:space="preserve">
<path d="M19,210c0-25.3,0-50.7,0-76c0.6-1.8,1.6-3.6,1.7-5.4c0.2-5,0.1-10,0.1-15.5c3.9-0.8,7.2-2,10.5-2
	c24.6-0.4,49.2-0.7,73.8-0.6c4.7,0,5.4-2.3,5.9-5.5c2.4-12.9,4.8-25.7,6.9-38.6c1.4-9.1,4.3-17,13.2-21.4c1.4-0.7,2.5-2.1,3.6-3.3
	c8.7-8.5,18.7-12.9,31.3-12c6,0.5,12.1-1.4,18.2-2.3c2.6-0.4,5.2-1.1,7.8-1.3c10.6-1.1,21.1-2.4,31.8-2.8c5.5-0.2,11.8-0.1,16.5,2.2
	c6.7,3.4,12.6,8.7,18.2,13.9c2.6,2.4,5,6.3,5.3,9.8c1.2,12.7,1.6,25.5,2.3,38.2c0.4,7.1,0.5,14.3,1.2,21.4c0.1,1.5,2,3.8,3.3,3.9
	c5.7,0.7,11.6,0.9,17.4,1.2c15.9,0.7,31.9,1,47.8,2.2c10.2,0.7,20.6,2,29.5,7.9c7.4,4.9,12.5,10.5,12,21
	c-1.2,24.8-0.8,49.6-1.4,74.4c-0.3,14.4-0.9,28.9-1.9,43.3c-0.7,10.8-1.9,21.5-3.3,32.2c-1,7.5-2.3,15.1-4.3,22.4
	c-1.4,5.2-4.5,9.9-6.4,15c-4.3,11.2-8.3,22.6-12.4,33.9c-0.2,0.6-0.6,1.2-1,1.7c-6.2,8.4-15.2,9.9-24.7,9.8c-5-0.1-10-0.5-14.9-0.4
	c-15.1,0.2-30.3,1.8-45.1-2.7c-2.7-0.8-4.5-0.4-6.4,2c-4.4,5.4-14.9,3.5-18-2.9c-0.5-1.1-2.3-2-3.6-2.1c-3.4-0.2-6.9,0.4-10.3,0.1
	c-8.1-0.6-16.1-2.1-24.2-2.3c-14.5-0.4-29-0.1-43.5-0.4c-10.5-0.2-21-0.6-31.4-1.4c-10.9-0.9-21.7-2.4-32.6-3.5
	c-11.3-1.2-22.9,0.4-33.6-5.4c-2.8-1.5-6.8-1.3-10.2-1c-8.1,0.7-15.1-3.1-17.2-11c-1.6-5.7-2.5-11.7-3-17.6
	c-1-12.6-1.4-25.2-2.1-37.9c-0.6-10.2-1.5-20.3-2.2-30.5c-1-15.7-1.9-31.5-2.9-47.2C20.6,212.2,19.6,211.1,19,210z M245.5,85.4
	c-0.5-10-0.9-18.6-1.6-27.2c-0.1-1.4-1.8-3.3-3.3-3.9c-1.9-0.9-4.2-1-6.3-1.1c-25-0.3-49.9-0.5-74.9-0.7c-9-0.1-9.4,0-10.9,8.5
	c-2.5,14.4-4.4,28.9-6.6,43.3c-0.7,4.7,1.6,6.5,5.8,6.7c15.1,0.4,30.3,0.9,45.4,0.9c15,0,29.9-0.8,44.9-0.9c3.6,0,5.3-1.2,5.6-4.6
	C244.3,99,244.9,91.5,245.5,85.4z"/>
</svg>
